<?xml version="1.0" encoding="utf-8"?>
<!-- Generator: Adobe Illustrator 24.0.1, SVG Export Plug-In . SVG Version: 6.00 Build 0)  -->
<svg version="1.1" xmlns="http://www.w3.org/2000/svg" xmlns:xlink="http://www.w3.org/1999/xlink" x="0px" y="0px"
	 viewBox="0 0 500 396" style="enable-background:new 0 0 500 396;" xml:space="preserve">
<style type="text/css">
	.st0{display:none;}
	.st1{display:inline;}
	.st2{fill:#1D1D1B;}
	.st3{fill:none;}
	.st4{fill:none;stroke:#1D1D1B;stroke-width:4.9167;stroke-miterlimit:10;}
	.st5{opacity:0.45;}
	.st6{fill:#495C72;}
	.st7{fill:#A7BDD3;}
	.st8{fill:#575F45;}
	.st9{fill:#3D3F35;}
	.st10{fill:#EAD5C5;}
	.st11{fill:#D0B69F;}
</style>
<g id="Layer_1" class="st0">
	<g class="st1">
		<path class="st2" d="M96.53,371.12c1.69-1.61,2.84-3.63,3.44-6.04v-15.91H83.95v-15.01h32.16v56.09H99.97v-3.05
			c-1.96,0.98-4.03,1.73-6.21,2.26c-2.18,0.53-4.4,0.79-6.66,0.79h-9.7c-3.84,0-7.45-0.73-10.83-2.2c-3.39-1.47-6.34-3.46-8.86-5.98
			c-2.52-2.52-4.52-5.47-5.98-8.86c-1.47-3.39-2.2-7-2.2-10.83V322.2c0-3.84,0.73-7.47,2.2-10.89c1.47-3.42,3.46-6.39,5.98-8.91
			c2.52-2.52,5.47-4.52,8.86-5.98c3.39-1.47,7-2.2,10.83-2.2h12.07c3.69,0,7.07,0.66,10.16,1.98c3.08,1.32,5.77,3.12,8.07,5.42
			c2.29,2.3,4.16,4.99,5.59,8.07c1.43,3.08,2.33,6.43,2.71,10.04H98.62c-0.6-2.48-1.6-4.57-2.99-6.26
			c-1.39-1.69-3.48-2.54-6.26-2.54H77.51c-1.66,0-3.16,0.32-4.52,0.96c-1.35,0.64-2.5,1.53-3.44,2.65c-0.94,1.13-1.67,2.43-2.2,3.89
			c-0.53,1.47-0.79,3.03-0.79,4.68v38.25c0,1.66,0.26,3.22,0.79,4.68c0.52,1.47,1.26,2.76,2.2,3.89c0.94,1.13,2.09,2.01,3.44,2.65
			c1.35,0.64,2.86,0.96,4.52,0.96h12.41C92.64,373.55,94.84,372.74,96.53,371.12z"/>
		<path class="st2" d="M138.45,374h52.02v16.25h-68.95v-96.04h16.93V374z"/>
		<path class="st2" d="M318.74,363.62h0.9c2.56-11.58,5.13-23.13,7.73-34.64c2.6-11.51,5.17-23.06,7.73-34.64h20.2v95.92h-13.88
			v-62.41h-0.9c-2.18,10.46-4.49,20.88-6.94,31.26c-2.45,10.38-4.76,20.76-6.94,31.15l-15.46,0.11l-13.09-62.29h-0.9v62.18h-13.99
			v-95.92h20.2L318.74,363.62z"/>
		<path class="st2" d="M401.79,294.21c3.61,0,7.02,0.68,10.22,2.03c3.2,1.35,5.96,3.21,8.29,5.58c2.33,2.37,4.18,5.13,5.53,8.3
			c1.35,3.16,2.03,6.54,2.03,10.16v4.18c0,3.61-0.68,6.99-2.03,10.16c-1.35,3.16-3.2,5.93-5.53,8.3c-2.33,2.37-5.1,4.23-8.29,5.58
			c-3.2,1.35-6.6,2.03-10.22,2.03h-24.26v39.72H360.6v-96.04H401.79z M377.53,311.03v22.68h21.44c4.06,0,7.02-1,8.86-2.99
			c1.84-1.99,2.76-4.76,2.76-8.3c0-3.39-0.94-6.13-2.82-8.24c-1.88-2.1-4.81-3.16-8.8-3.16H377.53z"/>
		<path class="st2" d="M433.62,294.21h17.83v96.04h-17.83V294.21z"/>
		<polygon class="st2" points="234.28,342.32 248.12,366.29 261.95,390.25 234.28,390.25 206.61,390.25 220.45,366.29 		"/>
		<g>
			<polygon class="st3" points="191.71,390.36 276.85,390.36 234.28,313.08 			"/>
			<polygon points="234.28,313.08 276.85,390.36 297.4,390.36 244.56,294.43 260.19,266.06 244.42,257.37 234.28,275.77 
				224.15,257.37 208.38,266.06 224,294.43 171.16,390.36 191.71,390.36 			"/>
			<polygon points="0.34,390.36 0.34,396 168.05,396 171.16,390.36 			"/>
			<polygon points="500.34,390.36 297.4,390.36 300.51,396 500.34,396 			"/>
			<polygon points="191.71,390.36 188.61,396 279.96,396 276.85,390.36 			"/>
			<polygon points="171.16,390.36 168.05,396 188.61,396 191.71,390.36 			"/>
			<polygon points="276.85,390.36 279.96,396 300.51,396 297.4,390.36 			"/>
		</g>
		<g>
			<rect x="19.74" y="292.8" width="5.64" height="98.87"/>
		</g>
		<g>
			<g>
				
					<rect x="29.53" y="286.38" transform="matrix(0.7071 -0.7071 0.7071 0.7071 -204.192 111.0791)" class="st2" width="4.92" height="31.28"/>
			</g>
			<g>
				
					<rect x="-2.5" y="299.56" transform="matrix(0.7071 -0.7071 0.7071 0.7071 -209.7132 97.7497)" class="st2" width="31.28" height="4.92"/>
			</g>
		</g>
		<g>
			<g>
				
					<rect x="29.53" y="307.12" transform="matrix(0.7072 -0.7071 0.7071 0.7072 -218.8457 117.1357)" class="st2" width="4.92" height="31.29"/>
			</g>
			<g>
				
					<rect x="-2.51" y="320.31" transform="matrix(0.7071 -0.7071 0.7071 0.7071 -224.3833 103.8262)" class="st2" width="31.29" height="4.92"/>
			</g>
		</g>
		<g>
			<g>
				
					<rect x="29.53" y="327.87" transform="matrix(0.7071 -0.7071 0.7071 0.7071 -233.5322 123.2322)" class="st2" width="4.92" height="31.28"/>
			</g>
			<g>
				
					<rect x="-2.5" y="341.05" transform="matrix(0.7071 -0.7071 0.7071 0.7071 -239.0535 109.9028)" class="st2" width="31.28" height="4.92"/>
			</g>
		</g>
		<line class="st4" x1="482.82" y1="333.18" x2="495.67" y2="346.03"/>
		<line class="st4" x1="485.62" y1="332.48" x2="472.77" y2="345.33"/>
		<line class="st4" x1="482.82" y1="345.23" x2="495.67" y2="358.08"/>
		<line class="st4" x1="485.62" y1="344.53" x2="472.77" y2="357.38"/>
		<line class="st4" x1="482.82" y1="357.28" x2="495.67" y2="370.13"/>
		<line class="st4" x1="485.62" y1="356.58" x2="472.77" y2="369.43"/>
		<line class="st4" x1="484.33" y1="334.46" x2="484.33" y2="392.95"/>
	</g>
</g>
<g id="Layer_2">
	<g>
		<g class="st5">
			<polygon class="st6" points="4.61,137.68 110.65,18.7 229.88,116.99 			"/>
			<polygon class="st6" points="265.96,68.83 380.87,0.22 470.98,97.77 451.11,163.45 261.61,121.33 			"/>
			<polygon class="st7" points="500,65.88 389.81,88.06 237.49,4.89 0,126.5 0,301.1 500,302.18 			"/>
			<rect x="37.55" y="348.46" class="st6" width="424.9" height="19.01"/>
			<rect x="98.78" y="376.99" class="st7" width="299.75" height="19.01"/>
			<g>
				<g>
					<polygon class="st8" points="42.75,142.2 57.77,198.5 72.79,254.8 41.35,254.41 9.91,254.02 26.33,198.11 					"/>
					<polygon class="st8" points="71.68,109.02 87.33,179.91 102.98,250.8 71.68,250.8 40.37,250.8 56.02,179.91 					"/>
					<polygon class="st8" points="98.78,142.85 115.34,213.74 131.9,284.63 98.78,284.63 65.65,284.63 82.21,213.74 					"/>
					<polygon class="st8" points="143.96,78.19 164.45,149.08 184.94,219.97 143.96,219.97 102.98,219.97 123.47,149.08 					"/>
					<polygon class="st8" points="202.01,127.41 218.57,198.3 235.13,269.19 202.01,269.19 168.88,269.19 185.45,198.3 					"/>
					<polygon class="st8" points="237.49,149.08 258.56,219.97 279.62,290.86 237.49,290.86 195.36,290.86 216.43,219.97 					"/>
					<polygon class="st8" points="442.63,143.63 463.7,214.52 484.76,285.41 442.63,285.41 400.5,285.41 421.57,214.52 					"/>
					<polygon class="st8" points="360.27,113.42 394.04,184.31 427.81,255.2 360.27,255.2 292.72,255.2 326.49,184.31 					"/>
				</g>
			</g>
			<g>
				<g>
					<rect x="296.29" y="69.11" class="st9" width="7.77" height="136.33"/>
				</g>
				<g>
					<g>
						
							<rect x="309.77" y="60.26" transform="matrix(0.7071 -0.7071 0.7071 0.7071 33.8601 245.4098)" class="st9" width="6.78" height="43.14"/>
					</g>
					<g>
						
							<rect x="265.61" y="78.44" transform="matrix(0.7071 -0.7071 0.7071 0.7071 26.248 227.0326)" class="st9" width="43.14" height="6.78"/>
					</g>
				</g>
				<g>
					<g>
						
							<rect x="309.77" y="88.87" transform="matrix(0.7071 -0.7071 0.7071 0.7071 13.6319 253.7886)" class="st9" width="6.78" height="43.14"/>
					</g>
					<g>
						
							<rect x="265.61" y="107.05" transform="matrix(0.7071 -0.7071 0.7071 0.7071 6.0198 235.4114)" class="st9" width="43.14" height="6.78"/>
					</g>
				</g>
				<g>
					<g>
						
							<rect x="309.77" y="117.48" transform="matrix(0.7071 -0.7071 0.7071 0.7071 -6.5963 262.1674)" class="st9" width="6.78" height="43.14"/>
					</g>
					<g>
						
							<rect x="265.61" y="135.66" transform="matrix(0.7071 -0.7071 0.7071 0.7071 -14.2084 243.7902)" class="st9" width="43.14" height="6.78"/>
					</g>
				</g>
			</g>
			<g>
				<g>
					<rect x="111.28" y="105.15" class="st9" width="5.43" height="95.29"/>
				</g>
				<g>
					<g>
						
							<rect x="120.7" y="98.97" transform="matrix(0.7071 -0.7071 0.7071 0.7071 -44.5928 120.429)" class="st9" width="4.74" height="30.15"/>
					</g>
					<g>
						
							<rect x="89.83" y="111.67" transform="matrix(0.7071 -0.7071 0.7071 0.7071 -49.9134 107.5838)" class="st9" width="30.15" height="4.74"/>
					</g>
				</g>
				<g>
					<g>
						
							<rect x="120.7" y="118.96" transform="matrix(0.7071 -0.7071 0.7071 0.7071 -58.7314 126.2854)" class="st9" width="4.74" height="30.15"/>
					</g>
					<g>
						
							<rect x="89.83" y="131.67" transform="matrix(0.7071 -0.7071 0.7071 0.7071 -64.052 113.4402)" class="st9" width="30.15" height="4.74"/>
					</g>
				</g>
				<g>
					<g>
						
							<rect x="120.7" y="138.96" transform="matrix(0.7071 -0.7071 0.7071 0.7071 -72.8699 132.1418)" class="st9" width="4.74" height="30.15"/>
					</g>
					<g>
						
							<rect x="89.83" y="151.66" transform="matrix(0.7071 -0.7071 0.7071 0.7071 -78.1906 119.2966)" class="st9" width="30.15" height="4.74"/>
					</g>
				</g>
			</g>
			<g>
				<g>
					<rect x="350.45" y="128.6" class="st9" width="5.01" height="87.9"/>
				</g>
				<g>
					<g>
						
							<rect x="359.15" y="122.89" transform="matrix(0.7071 -0.7071 0.7071 0.7071 9.1034 295.5699)" class="st9" width="4.37" height="27.81"/>
					</g>
					<g>
						
							<rect x="330.67" y="134.61" transform="matrix(0.7071 -0.7071 0.7071 0.7071 4.1957 283.7218)" class="st9" width="27.81" height="4.37"/>
					</g>
				</g>
				<g>
					<g>
						
							<rect x="359.15" y="141.33" transform="matrix(0.707 -0.7072 0.7072 0.707 -3.9255 301.0047)" class="st9" width="4.37" height="27.81"/>
					</g>
					<g>
						
							<rect x="330.67" y="153.05" transform="matrix(0.7071 -0.7071 0.7071 0.7071 -8.8462 289.1239)" class="st9" width="27.81" height="4.37"/>
					</g>
				</g>
				<g>
					<g>
						
							<rect x="359.15" y="159.78" transform="matrix(0.7071 -0.7071 0.7071 0.7071 -16.9804 306.3742)" class="st9" width="4.37" height="27.81"/>
					</g>
					<g>
						
							<rect x="330.67" y="171.5" transform="matrix(0.7071 -0.7071 0.7071 0.7071 -21.8881 294.5261)" class="st9" width="27.81" height="4.37"/>
					</g>
				</g>
			</g>
			<g>
				<g>
					<rect x="186.29" y="122.8" class="st9" width="3.97" height="69.56"/>
				</g>
				<g>
					<g>
						
							<rect x="193.17" y="118.28" transform="matrix(0.7072 -0.707 0.707 0.7072 -34.3372 175.6549)" class="st9" width="3.46" height="22.01"/>
					</g>
					<g>
						
							<rect x="170.63" y="127.55" transform="matrix(0.7071 -0.7071 0.7071 0.7071 -38.2161 166.3037)" class="st9" width="22.01" height="3.46"/>
					</g>
				</g>
				<g>
					<g>
						
							<rect x="193.17" y="132.87" transform="matrix(0.7072 -0.707 0.707 0.7072 -44.658 179.9293)" class="st9" width="3.46" height="22.01"/>
					</g>
					<g>
						
							<rect x="170.63" y="142.15" transform="matrix(0.7071 -0.7071 0.7071 0.7071 -48.5381 170.5792)" class="st9" width="22.01" height="3.46"/>
					</g>
				</g>
				<g>
					<g>
						
							<rect x="193.17" y="147.47" transform="matrix(0.7072 -0.707 0.707 0.7072 -54.9788 184.2036)" class="st9" width="3.46" height="22.01"/>
					</g>
					<g>
						
							<rect x="170.63" y="156.75" transform="matrix(0.7071 -0.7071 0.7071 0.7071 -58.8601 174.8547)" class="st9" width="22.01" height="3.46"/>
					</g>
				</g>
			</g>
			<polygon class="st10" points="500,337.63 500,173.42 433.28,218.65 380.87,191.72 311.88,231.4 279.62,337.63 			"/>
			<polygon class="st11" points="0,195.3 73.61,214.12 144.16,166.62 254.38,195.1 307.86,179.15 442.63,337.63 0,337.63 			"/>
		</g>
		<g>
			<path class="st2" d="M96.19,314.32c1.69-1.61,2.84-3.63,3.44-6.04v-15.91H83.61v-15.01h32.16v56.09H99.63v-3.05
				c-1.96,0.98-4.03,1.73-6.21,2.26c-2.18,0.53-4.4,0.79-6.66,0.79h-9.7c-3.84,0-7.45-0.73-10.83-2.2
				c-3.39-1.47-6.34-3.46-8.86-5.98c-2.52-2.52-4.52-5.47-5.98-8.86s-2.2-7-2.2-10.83v-40.17c0-3.84,0.73-7.47,2.2-10.89
				c1.47-3.42,3.46-6.39,5.98-8.91c2.52-2.52,5.47-4.52,8.86-5.98c3.39-1.47,7-2.2,10.83-2.2h12.07c3.69,0,7.07,0.66,10.16,1.98
				c3.08,1.32,5.77,3.12,8.07,5.42c2.29,2.3,4.16,4.99,5.59,8.07c1.43,3.08,2.33,6.43,2.71,10.04H98.28
				c-0.6-2.48-1.6-4.57-2.99-6.26c-1.39-1.69-3.48-2.54-6.26-2.54H77.18c-1.66,0-3.16,0.32-4.52,0.96c-1.35,0.64-2.5,1.53-3.44,2.65
				c-0.94,1.13-1.67,2.43-2.2,3.89c-0.53,1.47-0.79,3.03-0.79,4.68v38.25c0,1.66,0.26,3.22,0.79,4.68c0.52,1.47,1.26,2.76,2.2,3.89
				c0.94,1.13,2.09,2.01,3.44,2.65c1.35,0.64,2.86,0.96,4.52,0.96h12.41C92.3,316.75,94.5,315.95,96.19,314.32z"/>
			<path class="st2" d="M138.11,317.2h52.02v16.25h-68.95v-96.04h16.93V317.2z"/>
			<path class="st2" d="M318.4,306.82h0.9c2.56-11.58,5.13-23.13,7.73-34.64c2.6-11.51,5.17-23.06,7.73-34.64h20.2v95.92h-13.88
				v-62.41h-0.9c-2.18,10.46-4.49,20.88-6.94,31.26c-2.45,10.38-4.76,20.76-6.94,31.15l-15.46,0.11l-13.09-62.29h-0.9v62.18h-13.99
				v-95.92h20.2L318.4,306.82z"/>
			<path class="st2" d="M401.46,237.42c3.61,0,7.02,0.68,10.22,2.03c3.2,1.35,5.96,3.21,8.29,5.58c2.33,2.37,4.18,5.13,5.53,8.3
				c1.35,3.16,2.03,6.54,2.03,10.16v4.18c0,3.61-0.68,6.99-2.03,10.16c-1.35,3.16-3.2,5.93-5.53,8.3c-2.33,2.37-5.1,4.23-8.29,5.58
				c-3.2,1.35-6.6,2.03-10.22,2.03H377.2v39.72h-16.93v-96.04H401.46z M377.2,254.23v22.68h21.44c4.06,0,7.02-1,8.86-2.99
				c1.84-1.99,2.76-4.76,2.76-8.3c0-3.39-0.94-6.13-2.82-8.24c-1.88-2.1-4.81-3.16-8.8-3.16H377.2z"/>
			<path class="st2" d="M433.28,237.42h17.83v96.04h-17.83V237.42z"/>
			<polygon class="st2" points="233.94,285.53 247.78,309.49 261.61,333.45 233.94,333.45 206.27,333.45 220.11,309.49 			"/>
			<g>
				<polygon class="st3" points="191.37,333.57 276.51,333.57 233.94,256.29 				"/>
				<polygon points="233.94,256.29 276.51,333.57 297.07,333.57 244.22,237.63 259.85,209.26 244.08,200.57 233.94,218.98 
					223.81,200.57 208.04,209.26 223.67,237.63 170.82,333.57 191.37,333.57 				"/>
				<polygon points="0,333.57 0,339.2 167.72,339.2 170.82,333.57 				"/>
				<polygon points="500,333.57 297.07,333.57 300.17,339.2 500,339.2 				"/>
				<polygon points="191.37,333.57 188.27,339.2 279.62,339.2 276.51,333.57 				"/>
				<polygon points="170.82,333.57 167.72,339.2 188.27,339.2 191.37,333.57 				"/>
				<polygon points="276.51,333.57 279.62,339.2 300.17,339.2 297.07,333.57 				"/>
			</g>
			<g>
				<rect x="19.41" y="236" width="5.64" height="98.87"/>
			</g>
			<g>
				<g>
					
						<rect x="29.19" y="229.58" transform="matrix(0.7071 -0.7071 0.7071 0.7071 -164.1298 94.2052)" class="st2" width="4.92" height="31.28"/>
				</g>
				<g>
					
						<rect x="-2.84" y="242.77" transform="matrix(0.7071 -0.7071 0.7071 0.7071 -169.6511 80.8757)" class="st2" width="31.28" height="4.92"/>
				</g>
			</g>
			<g>
				<g>
					
						<rect x="29.19" y="250.33" transform="matrix(0.7072 -0.7071 0.7071 0.7072 -178.7868 100.265)" class="st2" width="4.92" height="31.29"/>
				</g>
				<g>
					
						<rect x="-2.84" y="263.51" transform="matrix(0.7071 -0.7071 0.7071 0.7071 -184.3212 86.9523)" class="st2" width="31.29" height="4.92"/>
				</g>
			</g>
			<g>
				<g>
					
						<rect x="29.19" y="271.08" transform="matrix(0.7071 -0.7071 0.7071 0.7071 -193.47 106.3583)" class="st2" width="4.92" height="31.28"/>
				</g>
				<g>
					
						<rect x="-2.84" y="284.26" transform="matrix(0.7071 -0.7071 0.7071 0.7071 -198.9913 93.0288)" class="st2" width="31.28" height="4.92"/>
				</g>
			</g>
			<line class="st4" x1="482.49" y1="276.39" x2="495.33" y2="289.23"/>
			<line class="st4" x1="485.28" y1="275.69" x2="472.44" y2="288.53"/>
			<line class="st4" x1="482.49" y1="288.44" x2="495.33" y2="301.28"/>
			<line class="st4" x1="485.28" y1="287.73" x2="472.44" y2="300.58"/>
			<line class="st4" x1="482.49" y1="300.48" x2="495.33" y2="313.33"/>
			<line class="st4" x1="485.28" y1="299.78" x2="472.44" y2="312.63"/>
			<line class="st4" x1="483.99" y1="277.66" x2="483.99" y2="336.15"/>
		</g>
	</g>
</g>
</svg>
